<svg xmlns="http://www.w3.org/2000/svg" width="928" height="80" fill="none" viewBox="0 0 928 80"><g clip-path="url(#clip0)"><path fill="#3787FF" fill-opacity=".15" d="M30 61.9998C23.6 61.1998 7.33333 66.9998 0 69.9998V79.5H928V10H714L671 15H507L389 20L380 41H309C295.4 41 205.333 47.6667 162 51C120.667 54.9999 36.4 62.7998 30 61.9998Z"/><rect width="4" height="12" fill="#0D3777" transform="translate(0 68)"/><rect width="4" height="7" fill="#3787FF" transform="translate(6 73)"/><rect width="4" height="8" fill="#3787FF" transform="translate(12 72)"/><rect width="4" height="7" fill="#3787FF" transform="translate(18 73)"/><rect width="4" height="11" fill="#3787FF" transform="translate(24 69)"/><rect width="4" height="8" fill="#3787FF" transform="translate(30 72)"/><rect width="4" height="16" fill="#0D3777" transform="translate(36 64)"/><rect width="4" height="11" fill="#0D3777" transform="translate(42 69)"/><rect width="4" height="14" fill="#3787FF" transform="translate(48 66)"/><rect width="4" height="7" fill="#3787FF" transform="translate(54 73)"/><rect width="4" height="7" fill="#3787FF" transform="translate(60 73)"/><rect width="4" height="9" fill="#3787FF" transform="translate(66 71)"/><rect width="4" height="11" fill="#3787FF" transform="translate(72 69)"/><rect width="4" height="13" fill="#0D3777" transform="translate(78 67)"/><rect width="4" height="11" fill="#0D3777" transform="translate(84 69)"/><rect width="4" height="7" fill="#3787FF" transform="translate(90 73)"/><rect width="4" height="8" fill="#3787FF" transform="translate(96 72)"/><rect width="4" height="7" fill="#3787FF" transform="translate(102 73)"/><rect width="4" height="11" fill="#3787FF" transform="translate(108 69)"/><rect width="4" height="8" fill="#3787FF" transform="translate(114 72)"/><rect width="4" height="6" fill="#0D3777" transform="translate(120 74)"/><rect width="4" height="8" fill="#0D3777" transform="translate(126 72)"/><rect width="4" height="7" fill="#3787FF" transform="translate(132 73)"/><rect width="4" height="8" fill="#3787FF" transform="translate(138 72)"/><rect width="4" height="7" fill="#3787FF" transform="translate(144 73)"/><rect width="4" height="11" fill="#3787FF" transform="translate(150 69)"/><rect width="4" height="8" fill="#3787FF" transform="translate(156 72)"/><rect width="4" height="16" fill="#0D3777" transform="translate(162 64)"/><rect width="4" height="11" fill="#0D3777" transform="translate(168 69)"/><rect width="4" height="14" fill="#3787FF" transform="translate(174 66)"/><rect width="4" height="7" fill="#3787FF" transform="translate(180 73)"/><rect width="4" height="7" fill="#3787FF" transform="translate(186 73)"/><rect width="4" height="9" fill="#3787FF" transform="translate(192 71)"/><rect width="4" height="11" fill="#3787FF" transform="translate(198 69)"/><rect width="4" height="13" fill="#0D3777" transform="translate(204 67)"/><rect width="4" height="11" fill="#0D3777" transform="translate(210 69)"/><rect width="4" height="7" fill="#3787FF" transform="translate(216 73)"/><rect width="4" height="8" fill="#3787FF" transform="translate(222 72)"/><rect width="4" height="7" fill="#3787FF" transform="translate(228 73)"/><rect width="4" height="11" fill="#3787FF" transform="translate(234 69)"/><rect width="4" height="8" fill="#3787FF" transform="translate(240 72)"/><rect width="4" height="6" fill="#0D3777" transform="translate(246 74)"/><rect width="4" height="8" fill="#0D3777" transform="translate(252 72)"/><rect width="4" height="7" fill="#3787FF" transform="translate(258 73)"/><rect width="4" height="8" fill="#3787FF" transform="translate(264 72)"/><rect width="4" height="7" fill="#3787FF" transform="translate(270 73)"/><rect width="4" height="11" fill="#3787FF" transform="translate(276 69)"/><rect width="4" height="8" fill="#3787FF" transform="translate(282 72)"/><rect width="4" height="16" fill="#0D3777" transform="translate(288 64)"/><rect width="4" height="11" fill="#0D3777" transform="translate(294 69)"/><rect width="4" height="14" fill="#3787FF" transform="translate(300 66)"/><rect width="4" height="7" fill="#3787FF" transform="translate(306 73)"/><rect width="4" height="7" fill="#3787FF" transform="translate(312 73)"/><rect width="4" height="9" fill="#3787FF" transform="translate(318 71)"/><rect width="4" height="11" fill="#3787FF" transform="translate(324 69)"/><rect width="4" height="13" fill="#0D3777" transform="translate(330 67)"/><rect width="4" height="11" fill="#0D3777" transform="translate(336 69)"/><rect width="4" height="47" fill="#3787FF" transform="translate(342 33)"/><rect width="4" height="48" fill="#3787FF" transform="translate(348 32)"/><rect width="4" height="47" fill="#3787FF" transform="translate(354 33)"/><rect width="4" height="51" fill="#3787FF" transform="translate(360 29)"/><rect width="4" height="48" fill="#3787FF" transform="translate(366 32)"/><rect width="4" height="46" fill="#0D3777" transform="translate(372 34)"/><rect width="4" height="48" fill="#0D3777" transform="translate(378 32)"/><rect width="4" height="7" fill="#3787FF" transform="translate(384 73)"/><rect width="4" height="8" fill="#3787FF" transform="translate(390 72)"/><rect width="4" height="7" fill="#3787FF" transform="translate(396 73)"/><rect width="4" height="11" fill="#3787FF" transform="translate(402 69)"/><rect width="4" height="8" fill="#3787FF" transform="translate(408 72)"/><rect width="4" height="16" fill="#0D3777" transform="translate(414 64)"/><rect width="4" height="11" fill="#0D3777" transform="translate(420 69)"/><rect width="4" height="7" fill="#3787FF" transform="translate(426 73)"/><rect width="4" height="8" fill="#3787FF" transform="translate(432 72)"/><rect width="4" height="7" fill="#3787FF" transform="translate(438 73)"/><rect width="4" height="11" fill="#3787FF" transform="translate(444 69)"/><rect width="4" height="8" fill="#3787FF" transform="translate(450 72)"/><rect width="4" height="16" fill="#0D3777" transform="translate(456 64)"/><rect width="4" height="11" fill="#0D3777" transform="translate(462 69)"/><rect width="4" height="14" fill="#3787FF" transform="translate(468 66)"/><rect width="4" height="7" fill="#3787FF" transform="translate(474 73)"/><rect width="4" height="7" fill="#3787FF" transform="translate(480 73)"/><rect width="4" height="9" fill="#3787FF" transform="translate(486 71)"/><rect width="4" height="11" fill="#3787FF" transform="translate(492 69)"/><rect width="4" height="13" fill="#0D3777" transform="translate(498 67)"/><rect width="4" height="11" fill="#0D3777" transform="translate(504 69)"/><rect width="4" height="7" fill="#3787FF" transform="translate(510 73)"/><rect width="4" height="8" fill="#3787FF" transform="translate(516 72)"/><rect width="4" height="7" fill="#3787FF" transform="translate(522 73)"/><rect width="4" height="11" fill="#3787FF" transform="translate(528 69)"/><rect width="4" height="8" fill="#3787FF" transform="translate(534 72)"/><rect width="4" height="6" fill="#0D3777" transform="translate(540 74)"/><rect width="4" height="8" fill="#0D3777" transform="translate(546 72)"/><rect width="4" height="7" fill="#3787FF" transform="translate(552 73)"/><rect width="4" height="8" fill="#3787FF" transform="translate(558 72)"/><rect width="4" height="7" fill="#3787FF" transform="translate(564 73)"/><rect width="4" height="11" fill="#3787FF" transform="translate(570 69)"/><rect width="4" height="8" fill="#3787FF" transform="translate(576 72)"/><rect width="4" height="16" fill="#0D3777" transform="translate(582 64)"/><rect width="4" height="11" fill="#0D3777" transform="translate(588 69)"/><rect width="4" height="14" fill="#3787FF" transform="translate(594 66)"/><rect width="4" height="7" fill="#3787FF" transform="translate(600 73)"/><rect width="4" height="7" fill="#3787FF" transform="translate(606 73)"/><rect width="4" height="9" fill="#3787FF" transform="translate(612 71)"/><rect width="4" height="11" fill="#3787FF" transform="translate(618 69)"/><rect width="4" height="13" fill="#0D3777" transform="translate(624 67)"/><rect width="4" height="11" fill="#0D3777" transform="translate(630 69)"/><rect width="4" height="7" fill="#3787FF" transform="translate(636 73)"/><rect width="4" height="8" fill="#3787FF" transform="translate(642 72)"/><rect width="4" height="7" fill="#3787FF" transform="translate(648 73)"/><rect width="4" height="11" fill="#3787FF" transform="translate(654 69)"/><rect width="4" height="8" fill="#3787FF" transform="translate(660 72)"/><rect width="4" height="6" fill="#0D3777" transform="translate(666 74)"/><rect width="4" height="8" fill="#0D3777" transform="translate(672 72)"/><rect width="4" height="7" fill="#3787FF" transform="translate(678 73)"/><rect width="4" height="8" fill="#3787FF" transform="translate(684 72)"/><rect width="4" height="7" fill="#3787FF" transform="translate(690 73)"/><rect width="4" height="11" fill="#3787FF" transform="translate(696 69)"/><rect width="4" height="8" fill="#3787FF" transform="translate(702 72)"/><rect width="4" height="16" fill="#0D3777" transform="translate(708 64)"/><rect width="4" height="11" fill="#0D3777" transform="translate(714 69)"/><rect width="4" height="14" fill="#3787FF" transform="translate(720 66)"/><rect width="4" height="7" fill="#3787FF" transform="translate(726 73)"/><rect width="4" height="7" fill="#3787FF" transform="translate(732 73)"/><rect width="4" height="9" fill="#3787FF" transform="translate(738 71)"/><rect width="4" height="11" fill="#3787FF" transform="translate(744 69)"/><rect width="4" height="13" fill="#0D3777" transform="translate(750 67)"/><rect width="4" height="11" fill="#0D3777" transform="translate(756 69)"/><rect width="4" height="14" fill="#3787FF" transform="translate(762 66)"/><rect width="4" height="7" fill="#3787FF" transform="translate(768 73)"/><rect width="4" height="7" fill="#3787FF" transform="translate(774 73)"/><rect width="4" height="9" fill="#3787FF" transform="translate(780 71)"/><rect width="4" height="11" fill="#3787FF" transform="translate(786 69)"/><rect width="4" height="13" fill="#0D3777" transform="translate(792 67)"/><rect width="4" height="11" fill="#0D3777" transform="translate(798 69)"/><rect width="4" height="14" fill="#3787FF" transform="translate(804 66)"/><rect width="4" height="7" fill="#3787FF" transform="translate(810 73)"/><rect width="4" height="7" fill="#3787FF" transform="translate(816 73)"/><rect width="4" height="9" fill="#3787FF" transform="translate(822 71)"/><rect width="4" height="11" fill="#3787FF" transform="translate(828 69)"/><rect width="4" height="13" fill="#0D3777" transform="translate(834 67)"/><rect width="4" height="11" fill="#0D3777" transform="translate(840 69)"/><rect width="4" height="7" fill="#3787FF" transform="translate(846 73)"/><rect width="4" height="8" fill="#3787FF" transform="translate(852 72)"/><rect width="4" height="7" fill="#3787FF" transform="translate(858 73)"/><rect width="4" height="11" fill="#3787FF" transform="translate(864 69)"/><rect width="4" height="8" fill="#3787FF" transform="translate(870 72)"/><rect width="4" height="6" fill="#0D3777" transform="translate(876 74)"/><rect width="4" height="8" fill="#0D3777" transform="translate(882 72)"/><rect width="4" height="7" fill="#3787FF" transform="translate(888 73)"/><rect width="4" height="8" fill="#3787FF" transform="translate(894 72)"/><rect width="4" height="7" fill="#3787FF" transform="translate(900 73)"/><rect width="4" height="11" fill="#3787FF" transform="translate(906 69)"/><rect width="4" height="8" fill="#3787FF" transform="translate(912 72)"/><rect width="4" height="6" fill="#0D3777" transform="translate(918 74)"/><rect width="4" height="8" fill="#0D3777" transform="translate(924 72)"/></g><defs><clipPath id="clip0"><path fill="#fff" d="M0 2C0 0.895429 0.895431 0 2 0H926C927.105 0 928 0.895431 928 2V78C928 79.1046 927.105 80 926 80H2.00001C0.895442 80 0 79.1046 0 78V2Z"/></clipPath></defs></svg>