<svg xmlns="http://www.w3.org/2000/svg" width="72" height="72" fill="none" viewBox="0 0 72 72"><path fill="#3787FF" fill-opacity=".1" d="M0 8C0 3.58172 3.58172 0 8 0H64C68.4183 0 72 3.58172 72 8V64C72 68.4183 68.4183 72 64 72H8C3.58172 72 0 68.4183 0 64V8Z"/><path fill="url(#paint0_linear_307_525)" fill-opacity=".1" d="M0 8C0 3.58172 3.58172 0 8 0H64C68.4183 0 72 3.58172 72 8V64C72 68.4183 68.4183 72 64 72H8C3.58172 72 0 68.4183 0 64V8Z"/><g filter="url(#filter0_dd_307_525)"><rect width="35" height="30" x="18.5" y="21" fill="#21324B" rx="2"/><rect width="35" height="30" x="18.5" y="21" fill="url(#paint1_linear_307_525)" fill-opacity=".2" rx="2"/></g><circle cx="52.25" cy="22.25" r="3.75" fill="#62D198"/><path fill="#fff" fill-rule="evenodd" d="M45 29H25V31H45V29ZM37 33H25V35H37V33ZM25 37H47V39H25V37ZM31 41H25V43H31V41Z" clip-rule="evenodd"/><defs><filter id="filter0_dd_307_525" width="39" height="35" x="16.5" y="20" color-interpolation-filters="sRGB" filterUnits="userSpaceOnUse"><feFlood flood-opacity="0" result="BackgroundImageFix"/><feColorMatrix in="SourceAlpha" result="hardAlpha" type="matrix" values="0 0 0 0 0 0 0 0 0 0 0 0 0 0 0 0 0 0 127 0"/><feMorphology in="SourceAlpha" operator="erode" radius="4" result="effect1_dropShadow_307_525"/><feOffset dy="4"/><feGaussianBlur stdDeviation="2"/><feColorMatrix type="matrix" values="0 0 0 0 0.054902 0 0 0 0 0.0941176 0 0 0 0 0.152941 0 0 0 0.25 0"/><feBlend in2="BackgroundImageFix" mode="normal" result="effect1_dropShadow_307_525"/><feColorMatrix in="SourceAlpha" result="hardAlpha" type="matrix" values="0 0 0 0 0 0 0 0 0 0 0 0 0 0 0 0 0 0 127 0"/><feOffset dy="1"/><feGaussianBlur stdDeviation="1"/><feComposite in2="hardAlpha" operator="out"/><feColorMatrix type="matrix" values="0 0 0 0 0.054902 0 0 0 0 0.0941176 0 0 0 0 0.152941 0 0 0 0.1 0"/><feBlend in2="effect1_dropShadow_307_525" mode="normal" result="effect2_dropShadow_307_525"/><feBlend in="SourceGraphic" in2="effect2_dropShadow_307_525" mode="normal" result="shape"/></filter><linearGradient id="paint0_linear_307_525" x1="0" x2="72" y1="0" y2="72" gradientUnits="userSpaceOnUse"><stop stop-color="#3787FF" stop-opacity="0"/><stop offset="1" stop-color="#3787FF"/></linearGradient><linearGradient id="paint1_linear_307_525" x1="18.5" x2="53.5" y1="21" y2="51" gradientUnits="userSpaceOnUse"><stop stop-color="#fff"/><stop offset="1" stop-color="#fff" stop-opacity="0"/></linearGradient></defs></svg>