<svg xmlns="http://www.w3.org/2000/svg" width="24" height="24" fill="none" viewBox="0 0 24 24"><path fill="#54C5F8" d="M21.7117 11.084H14.3814L7.96786 17.4989L11.6321 21.1633L21.7117 11.084Z"/><path fill="#54C5F8" d="M6.13514 15.666L2.46928 12.0002L14.3816 0.0878906H21.7119L6.13514 15.666Z"/><path fill="#01579B" d="M11.6322 21.1626L14.3815 23.9119H21.7118L15.298 17.498L11.6322 21.1626Z"/><path fill="url(#paint0_linear)" d="M11.6322 21.1625L17.0685 19.2808L15.298 17.498L11.6322 21.1625Z"/><path fill="#29B6F6" d="M11.6326 13.833L7.96758 17.498L11.6326 21.1631L15.2977 17.498L11.6326 13.833Z"/><path fill="url(#paint1_radial)" d="M21.7119 11.0838L15.2982 17.4974L21.7119 23.9125H14.3816L11.6323 21.1632L7.96668 17.4974L14.3818 11.0836H21.7119V11.0838ZM14.3816 0.0878906L2.46928 12.0002L6.13514 15.666L21.7119 0.0878906H14.3816Z"/><defs><linearGradient id="paint0_linear" x1="12.701" x2="15.431" y1="21.871" y2="19.141" gradientUnits="userSpaceOnUse"><stop stop-color="#1A237E" stop-opacity=".4"/><stop offset="1" stop-color="#1A237E" stop-opacity="0"/></linearGradient><radialGradient id="paint1_radial" cx="0" cy="0" r="1" gradientTransform="translate(3.01085 1.71229) scale(29.1481)" gradientUnits="userSpaceOnUse"><stop stop-color="#fff" stop-opacity=".1"/><stop offset="1" stop-color="#fff" stop-opacity="0"/></radialGradient></defs></svg>