<svg xmlns="http://www.w3.org/2000/svg" width="16" height="16" fill="none" viewBox="0 0 16 16"><path fill="#0052CD" d="M2 3.5H14V12C14 12.1326 13.9473 12.2598 13.8536 12.3536C13.7598 12.4473 13.6326 12.5 13.5 12.5H2.5C2.36739 12.5 2.24021 12.4473 2.14645 12.3536C2.05268 12.2598 2 12.1326 2 12V3.5Z"/><g opacity=".75"><path fill="#063799" d="M14 10.5L8 6.5L2 10.5"/><path fill="#063799" d="M14 10.5L8 6.5L2 10.5V12.5H14V10.5Z"/></g><path fill="#002358" fill-opacity=".1" d="M8 10L2 4.5V3.5H14V4.5L8 10Z"/><path fill="#3787FF" d="M8 9L14 3.5H2L8 9Z"/><path fill="#fff" fill-opacity=".2" fill-rule="evenodd" d="M2 3.5H14L13.4545 4H2.54545L2 3.5Z" clip-rule="evenodd"/></svg>