<svg xmlns="http://www.w3.org/2000/svg" width="24" height="24" fill="none" viewBox="0 0 24 24"><path fill="#00247D" d="M0.5 6C0.223857 6 0 6.22386 0 6.5V17.5C0 17.7761 0.223858 18 0.5 18H23.5C23.7761 18 24 17.7761 24 17.5V6.5C24 6.22386 23.7761 6 23.5 6H0.5Z"/><mask id="mask0_5_20" style="mask-type:alpha" width="24" height="12" x="0" y="6" maskUnits="userSpaceOnUse"><path fill="#fff" d="M0.5 6C0.223857 6 0 6.22386 0 6.5V17.5C0 17.7761 0.223858 18 0.5 18H23.5C23.7761 18 24 17.7761 24 17.5V6.5C24 6.22386 23.7761 6 23.5 6H0.5Z"/></mask><g mask="url(#mask0_5_20)"><path fill="#000" d="M0 6L24 18L0 6Z"/><path stroke="#fff" stroke-width="1.6" d="M0 6L24 18"/><path fill="#000" d="M24 6L0 18L24 6Z"/><path stroke="#fff" stroke-width="1.6" d="M24 6L0 18"/><mask id="mask1_5_20" style="mask-type:alpha" width="24" height="12" x="0" y="6" maskUnits="userSpaceOnUse"><path fill="#fff" fill-rule="evenodd" d="M12 12H24V18L12 12ZM12 12V18H0L12 12ZM12 12H0V6L12 12ZM12 12V6H24L12 12Z" clip-rule="evenodd"/></mask><g mask="url(#mask1_5_20)"><path fill="#000" d="M0 6L24 18L0 6Z"/><path stroke="#CF142B" stroke-width="1.067" d="M0 6L24 18"/><path fill="#000" d="M24 6L0 18L24 6Z"/><path stroke="#CF142B" stroke-width="1.067" d="M24 6L0 18"/></g><path fill="#000" d="M12 6V18V6Z"/><path stroke="#fff" stroke-width="2.667" d="M12 6V18"/><path fill="#000" d="M0 12H24H0Z"/><path stroke="#fff" stroke-width="2.667" d="M0 12H24"/><path fill="#000" d="M12 6V18V6Z"/><path stroke="#CF142B" stroke-width="1.6" d="M12 6V18"/><path fill="#000" d="M0 12H24H0Z"/><path stroke="#CF142B" stroke-width="1.6" d="M0 12H24"/></g></svg>