<svg xmlns="http://www.w3.org/2000/svg" width="32" height="32" fill="none" viewBox="0 0 32 32"><path fill="#00247D" d="M0.5 8C0.223858 8 0 8.22386 0 8.5V23.5C0 23.7761 0.223858 24 0.5 24H31.5C31.7761 24 32 23.7761 32 23.5V8.5C32 8.22386 31.7761 8 31.5 8H0.5Z"/><mask id="mask0" width="32" height="16" x="0" y="8" mask-type="alpha" maskUnits="userSpaceOnUse"><path fill="#fff" d="M0.5 8C0.223858 8 0 8.22386 0 8.5V23.5C0 23.7761 0.223858 24 0.5 24H31.5C31.7761 24 32 23.7761 32 23.5V8.5C32 8.22386 31.7761 8 31.5 8H0.5Z"/></mask><g mask="url(#mask0)"><path fill="#000" d="M0 8L32 24L0 8Z"/><path stroke="#fff" stroke-width="1.6" d="M0 8L32 24"/><path fill="#000" d="M32 8L0 24L32 8Z"/><path stroke="#fff" stroke-width="1.6" d="M32 8L0 24"/><mask id="mask1" width="32" height="16" x="0" y="8" mask-type="alpha" maskUnits="userSpaceOnUse"><path fill="#fff" fill-rule="evenodd" d="M16 16H32V24L16 16ZM16 16V24H0L16 16ZM16 16H0V8L16 16ZM16 16V8H32L16 16Z" clip-rule="evenodd"/></mask><g mask="url(#mask1)"><path fill="#000" d="M0 8L32 24L0 8Z"/><path stroke="#CF142B" stroke-width="1.067" d="M0 8L32 24"/><path fill="#000" d="M32 8L0 24L32 8Z"/><path stroke="#CF142B" stroke-width="1.067" d="M32 8L0 24"/></g><path fill="#000" d="M16 8V24V8Z"/><path stroke="#fff" stroke-width="2.667" d="M16 8V24"/><path fill="#000" d="M0 16H32H0Z"/><path stroke="#fff" stroke-width="2.667" d="M0 16H32"/><path fill="#000" d="M16 8V24V8Z"/><path stroke="#CF142B" stroke-width="1.6" d="M16 8V24"/><path fill="#000" d="M0 16H32H0Z"/><path stroke="#CF142B" stroke-width="1.6" d="M0 16H32"/></g></svg>